<?xml version="1.0" ?><svg id="Слой_1" style="enable-background:new 0 0 512 512;" version="1.1" viewBox="0 0 512 512" xml:space="preserve" xmlns="http://www.w3.org/2000/svg" xmlns:xlink="http://www.w3.org/1999/xlink"><style type="text/css">
	.st0{fill:#FFF7C3;}
	.st1{fill:#EBF2FF;}
	.st2{fill:#FFD6C6;}
	.st3{fill:none;stroke:#000000;stroke-width:12;stroke-miterlimit:10;}
	.st4{fill:#FFFFFF;}
</style><g><g><g><path class="st0" d="M437.5,243.9H159.3c-22.3,0-40.5-18.2-40.5-40.5v0c0-22.3,18.2-40.5,40.5-40.5h277.9c1.5,0,2.3,1.8,1.4,2.9     c-7.9,9.2-28.2,38.9,0.4,75.2C439.9,242.2,439,243.9,437.5,243.9z"/><path class="st1" d="M480.6,324.9H202.4c-22.3,0-40.5-18.2-40.5-40.5v0c0-22.3,18.2-40.5,40.5-40.5h277.9c1.5,0,2.3,1.8,1.4,2.9     c-7.9,9.2-28.2,38.9,0.4,75.2C483,323.2,482.1,324.9,480.6,324.9z"/><path class="st2" d="M437.5,405.8H159.3c-22.3,0-40.5-18.2-40.5-40.5v0c0-22.3,18.2-40.5,40.5-40.5h277.9c1.5,0,2.3,1.8,1.4,2.9     c-7.9,9.2-28.2,38.9,0.4,75.2C439.9,404.1,439,405.8,437.5,405.8z"/><path class="st3" d="M403,243.9H124.8c-22.3,0-40.5-18.2-40.5-40.5v0c0-22.3,18.2-40.5,40.5-40.5h277.9c1.5,0,2.3,1.8,1.4,2.9     c-7.9,9.2-28.2,38.9,0.4,75.2C405.4,242.2,404.5,243.9,403,243.9z"/><path class="st3" d="M446.1,324.9H167.9c-22.3,0-40.5-18.2-40.5-40.5v0c0-22.3,18.2-40.5,40.5-40.5h277.9c1.5,0,2.3,1.8,1.4,2.9     c-7.9,9.2-28.2,38.9,0.4,75.2C448.5,323.2,447.6,324.9,446.1,324.9z"/><path class="st3" d="M403,405.8H124.8c-22.3,0-40.5-18.2-40.5-40.5v0c0-22.3,18.2-40.5,40.5-40.5h277.9c1.5,0,2.3,1.8,1.4,2.9     c-7.9,9.2-28.2,38.9,0.4,75.2C405.4,404.1,404.5,405.8,403,405.8z"/><polygon class="st4" points="201.8,197.5 266.8,197.5 266.8,284.4 234.3,266.4 201.8,284.4    "/><polygon class="st3" points="189.5,197.5 254.5,197.5 254.5,284.4 222,266.4 189.5,284.4    "/></g><line class="st3" x1="43.3" x2="29.6" y1="405.8" y2="405.8"/><line class="st3" x1="57.1" x2="124.8" y1="405.8" y2="405.8"/><line class="st3" x1="279.1" x2="298" y1="365.4" y2="365.4"/><line class="st3" x1="273.5" x2="370.8" y1="197.5" y2="197.5"/><line class="st3" x1="142.9" x2="161.9" y1="197.5" y2="197.5"/></g><line class="st3" x1="257.7" x2="222" y1="365.4" y2="365.4"/></g></svg>